<svg width="1200" height="630" viewBox="0 0 1200 630" fill="none" xmlns="http://www.w3.org/2000/svg">
  <rect width="1200" height="630" fill="#F7F7FA"/>
  <rect x="48" y="48" width="1104" height="534" rx="28" fill="white" stroke="#EEEEF4" stroke-width="2"/>
  <path d="M0 630L251 430C370 335 512 312 648 364L834 435C925 470 1029 462 1113 413L1200 362V630H0Z" fill="#FDECEA"/>
  <circle cx="935" cy="167" r="74" fill="#C0392B" fill-opacity="0.12"/>
  <path d="M173 430H1027" stroke="#EEEEF4" stroke-width="2"/>
  <path d="M227 428V352H274V325H226L252 287H949L975 325H927V352H974V428" stroke="#C0392B" stroke-width="16" stroke-linecap="round" stroke-linejoin="round"/>
  <path d="M322 352H879" stroke="#C0392B" stroke-width="16" stroke-linecap="round"/>
  <path d="M421 428V352" stroke="#C0392B" stroke-width="16" stroke-linecap="round"/>
  <path d="M781 428V352" stroke="#C0392B" stroke-width="16" stroke-linecap="round"/>
  <text x="171" y="190" fill="#1A1A2E" font-family="Georgia, serif" font-size="68" letter-spacing="-1.36">Japan Toolkit</text>
  <text x="173" y="246" fill="#4A4A6A" font-family="Inter, Arial, sans-serif" font-size="28">Practical tools and itineraries for planning Japan smarter.</text>
</svg>
